# xmcd
#
# Track frame offsets:
#  150
#  15490
#  35972
#  51017
#  67625
#  85617
#  99587
#  115479
#  129870
#  148087
#  166102
#  179950
#
# Disc length: 2612 seconds
#
# Revision: 1
# Processed by: cddbd v1.5.1PL2 Copyright (c) Steve Scherf et al.
# Submitted via: Collectorz.com_Music_Collector 6.11
#
DISCID=9d0a320c
DTITLE=Ronni Rae Rivers - Notice Me
DYEAR=2005
DGENRE=Country
TTITLE0=Notice Me
TTITLE1=Janine (Care Of The Stars)
TTITLE2=Just When I Needed You Most
TTITLE3=Now You're Gone
TTITLE4=Timmy
TTITLE5=Trouble At The Door
TTITLE6=He's Mine
TTITLE7=If Promises Were Gold
TTITLE8=Been Through This Before
TTITLE9=Rodeo Romeo
TTITLE10=It's Only Make Believe
TTITLE11=Happy New Year
EXTD=
EXTT0=
EXTT1=
EXTT2=
EXTT3=
EXTT4=
EXTT5=
EXTT6=
EXTT7=
EXTT8=
EXTT9=
EXTT10=
EXTT11=
PLAYORDER=
